<svg xmlns="http://www.w3.org/2000/svg" style="display:none" aria-hidden="true">
  <defs>
    <style>
      symbol { stroke: currentColor; stroke-width: 1.9; fill: none; stroke-linecap: round; stroke-linejoin: round; }
      symbol .f { fill: currentColor; stroke: none; }
    </style>
  </defs>

  <symbol id="ic-home" viewBox="0 0 24 24"><path d="M4 11l8-7 8 7"/><path d="M6 10v10h12V10"/></symbol>
  <symbol id="ic-list" viewBox="0 0 24 24"><path d="M9 6h11M9 12h11M9 18h11"/><circle class="f" cx="4.5" cy="6" r="1.1"/><circle class="f" cx="4.5" cy="12" r="1.1"/><circle class="f" cx="4.5" cy="18" r="1.1"/></symbol>
  <symbol id="ic-arrow-right" viewBox="0 0 24 24"><path d="M5 12h13"/><path d="M12 6l6 6-6 6"/></symbol>
  <symbol id="ic-arrow-left" viewBox="0 0 24 24"><path d="M19 12H6"/><path d="M12 6l-6 6 6 6"/></symbol>
  <symbol id="ic-x" viewBox="0 0 24 24"><path d="M6 6l12 12M18 6L6 18"/></symbol>
  <symbol id="ic-check" viewBox="0 0 24 24"><path d="M5 13l4 4L19 7"/></symbol>
  <symbol id="ic-user" viewBox="0 0 24 24"><circle cx="12" cy="8" r="4"/><path d="M5 20c0-4 3-6 7-6s7 2 7 6"/></symbol>
  <symbol id="ic-users" viewBox="0 0 24 24"><circle cx="9" cy="8" r="3.2"/><path d="M3 19c0-3.5 2.5-5 6-5s6 1.5 6 5"/><path d="M16 5.6a3.2 3.2 0 0 1 0 6.1"/><path d="M17 14.2c2.4.4 4 1.9 4 4.8"/></symbol>
  <symbol id="ic-lock" viewBox="0 0 24 24"><rect x="5" y="11" width="14" height="9" rx="2"/><path d="M8 11V8a4 4 0 0 1 8 0v3"/></symbol>
  <symbol id="ic-key" viewBox="0 0 24 24"><circle cx="8" cy="12" r="4"/><path d="M11.5 12H21M17 12v3M20 12v3"/></symbol>
  <symbol id="ic-shield" viewBox="0 0 24 24"><path d="M12 3l7 3v5c0 4-3 7-7 9-4-2-7-5-7-9V6z"/></symbol>
  <symbol id="ic-shield-check" viewBox="0 0 24 24"><path d="M12 3l7 3v5c0 4-3 7-7 9-4-2-7-5-7-9V6z"/><path d="M9 11.5l2 2 4-4"/></symbol>
  <symbol id="ic-warning" viewBox="0 0 24 24"><path d="M12 4l9 16H3z"/><path d="M12 10v4.5"/><circle class="f" cx="12" cy="17.5" r="1"/></symbol>
  <symbol id="ic-hook" viewBox="0 0 24 24"><path d="M15 4v9a4 4 0 0 1-8 0v-1"/><circle class="f" cx="15" cy="4" r="1.3"/></symbol>
  <symbol id="ic-bulb" viewBox="0 0 24 24"><path d="M9.5 18h5M10.5 21h3"/><path d="M12 3a6 6 0 0 0-3.5 10.8c.9.8 1.5 1.5 1.5 2.2h4c0-.7.6-1.4 1.5-2.2A6 6 0 0 0 12 3z"/></symbol>
  <symbol id="ic-compass" viewBox="0 0 24 24"><circle cx="12" cy="12" r="9"/><path d="M15.5 8.5l-2 5.5-5 2 2-5.5z"/></symbol>
  <symbol id="ic-globe" viewBox="0 0 24 24"><circle cx="12" cy="12" r="9"/><path d="M3 12h18"/><path d="M12 3c3 3.2 3 14.8 0 18M12 3c-3 3.2-3 14.8 0 18"/></symbol>
  <symbol id="ic-info" viewBox="0 0 24 24"><circle cx="12" cy="12" r="9"/><path d="M12 11.5V16"/><circle class="f" cx="12" cy="8.3" r="1"/></symbol>
  <symbol id="ic-book" viewBox="0 0 24 24"><path d="M6 4h13v16H6a2 2 0 0 1 0-4h13"/></symbol>
  <symbol id="ic-help" viewBox="0 0 24 24"><circle cx="12" cy="12" r="9"/><circle cx="12" cy="12" r="3.6"/><path d="M5 5l4.5 4.5M19 5l-4.5 4.5M19 19l-4.5-4.5M5 19l4.5-4.5"/></symbol>
  <symbol id="ic-heart" viewBox="0 0 24 24"><path d="M12 20S4 14.5 4 9a3.6 3.6 0 0 1 8-2 3.6 3.6 0 0 1 8 2c0 5.5-8 11-8 11z"/></symbol>
  <symbol id="ic-screen" viewBox="0 0 24 24"><rect x="3" y="5" width="18" height="11" rx="1.6"/><path d="M9 20h6M12 16v4"/></symbol>
  <symbol id="ic-robot" viewBox="0 0 24 24"><rect x="5" y="8" width="14" height="10" rx="2"/><path d="M12 5.5V8"/><circle class="f" cx="12" cy="4.5" r="1"/><circle class="f" cx="9.5" cy="13" r="1.2"/><circle class="f" cx="14.5" cy="13" r="1.2"/></symbol>
  <symbol id="ic-quiz" viewBox="0 0 24 24"><circle cx="12" cy="12" r="9"/><path d="M9.6 9.2a2.5 2.5 0 0 1 4.2 1.8c0 1.6-2 2-2 3.4"/><circle class="f" cx="11.8" cy="17" r="1"/></symbol>
  <symbol id="ic-star" viewBox="0 0 24 24"><path d="M12 4l2.5 5.1 5.5.8-4 3.9 1 5.4-5-2.7-5 2.7 1-5.4-4-3.9 5.5-.8z"/></symbol>
  <symbol id="ic-flame" viewBox="0 0 24 24"><path d="M12 3c3.5 4 5 6.2 5 9a5 5 0 0 1-10 0c0-2 .8-3.6 1.8-4.6 0 1.7 1 2.6 1.7 2.6 1.2-2 .3-4.4-.2-7z"/></symbol>
  <symbol id="ic-award" viewBox="0 0 24 24"><circle cx="12" cy="9" r="5"/><path d="M9 13l-1.6 8 4.6-2.6L16.6 21 15 13"/></symbol>
  <symbol id="ic-sprout" viewBox="0 0 24 24"><path d="M12 21v-8"/><path d="M12 14c0-3-2-5-7-5 0 4 3.5 5 7 5z"/><path d="M12 12c0-2.5 2-4.5 6-4.5 0 3.2-2.5 4.5-6 4.5z"/></symbol>
  <symbol id="ic-trending-up" viewBox="0 0 24 24"><path d="M4 16l5-5 4 4 7-7"/><path d="M16 8h4v4"/></symbol>
  <symbol id="ic-chart" viewBox="0 0 24 24"><path d="M4 20h16"/><path d="M7 20v-6M12 20V7M17 20v-9"/></symbol>
  <symbol id="ic-bell" viewBox="0 0 24 24"><path d="M6.5 17l1-2v-4a4.5 4.5 0 0 1 9 0v4l1 2z"/><path d="M10 20a2 2 0 0 0 4 0"/></symbol>
  <symbol id="ic-bell-off" viewBox="0 0 24 24"><path d="M6.5 17l1-2v-4a4.5 4.5 0 0 1 6-4.2"/><path d="M16.5 11v4l1 2H8"/><path d="M10 20a2 2 0 0 0 4 0"/><path d="M4 4l16 16"/></symbol>
  <symbol id="ic-target" viewBox="0 0 24 24"><circle cx="12" cy="12" r="8"/><circle cx="12" cy="12" r="4"/><circle class="f" cx="12" cy="12" r="1.2"/></symbol>
  <symbol id="ic-pin" viewBox="0 0 24 24"><path d="M12 21s6-5 6-10a6 6 0 0 0-12 0c0 5 6 10 6 10z"/><circle cx="12" cy="11" r="2.2"/></symbol>
  <symbol id="ic-eye" viewBox="0 0 24 24"><path d="M2 12s4-6 10-6 10 6 10 6-4 6-10 6-10-6-10-6z"/><circle cx="12" cy="12" r="2.6"/></symbol>
  <symbol id="ic-ban" viewBox="0 0 24 24"><circle cx="12" cy="12" r="9"/><path d="M5.6 5.6l12.8 12.8"/></symbol>
  <symbol id="ic-flag" viewBox="0 0 24 24"><path d="M6 21V4"/><path d="M6 5h11l-2.2 3.2L17 11H6"/></symbol>
  <symbol id="ic-clock" viewBox="0 0 24 24"><circle cx="12" cy="12" r="9"/><path d="M12 7v5.2l3.2 2"/></symbol>
  <symbol id="ic-chat" viewBox="0 0 24 24"><path d="M5 5h14v10H9l-4 4z"/></symbol>
  <symbol id="ic-search" viewBox="0 0 24 24"><circle cx="11" cy="11" r="6"/><path d="M15.5 15.5L20 20"/></symbol>
  <symbol id="ic-gear" viewBox="0 0 24 24"><circle cx="12" cy="12" r="3.2"/><path d="M12 3v3M12 18v3M3 12h3M18 12h3M5.6 5.6l2.1 2.1M16.3 16.3l2.1 2.1M18.4 5.6l-2.1 2.1M7.7 16.3l-2.1 2.1"/></symbol>
  <symbol id="ic-cookie" viewBox="0 0 24 24"><circle cx="12" cy="12" r="9"/><circle class="f" cx="9.2" cy="10" r="1.1"/><circle class="f" cx="14.3" cy="9.3" r="1.1"/><circle class="f" cx="13" cy="14.5" r="1.1"/></symbol>
  <symbol id="ic-phone" viewBox="0 0 24 24"><rect x="7" y="3" width="10" height="18" rx="2"/><path d="M11 18h2"/></symbol>
  <symbol id="ic-id" viewBox="0 0 24 24"><rect x="3" y="6" width="18" height="12" rx="2"/><circle cx="8" cy="12" r="2.4"/><path d="M13 10h5M13 14h5"/></symbol>
  <symbol id="ic-camera" viewBox="0 0 24 24"><rect x="3" y="7" width="18" height="12" rx="2"/><circle cx="12" cy="13" r="3.4"/><path d="M8.5 7l1.4-2h4.2L15.5 7"/></symbol>
  <symbol id="ic-play" viewBox="0 0 24 24"><path d="M8 5l11 7-11 7z"/></symbol>
  <symbol id="ic-write" viewBox="0 0 24 24"><path d="M5 19h14"/><path d="M14 5l4 4L8 19l-4 1 1-4z"/></symbol>
  <symbol id="ic-celebrate" viewBox="0 0 24 24"><path d="M4 20l5-13 8 8z"/><path d="M15 4l.5 2M19 6l-1.5 1.5M20 11h-2"/></symbol>
  <symbol id="ic-rocket" viewBox="0 0 24 24"><path d="M14 4c3 1 5 4 5 8l-4 4-5-5 4-4z"/><path d="M10 11l-5 1 3 3 1-5z"/><path d="M7 17l-2 2"/></symbol>
  <symbol id="ic-wave" viewBox="0 0 24 24"><path d="M7 13V6a1.6 1.6 0 0 1 3.2 0v5M10.2 11V5a1.6 1.6 0 0 1 3.2 0v6M13.4 11V7a1.6 1.6 0 0 1 3.2 0v6c0 4-2.5 6-6 6s-5-2-6-5l-1.5-3a1.6 1.6 0 0 1 2.8-1.5L7 13"/></symbol>
</svg>
